HIERARCHY
ROOT Hips
{
  OFFSET 57.8838 95.319 338.509
  CHANNELS 6 Xposition Yposition Zposition Zrotation Xrotation Yrotation
  JOINT LeftUpLeg
  {
    OFFSET 8.64259 1.95398 -2.38835
    CHANNELS 3 Zrotation Xrotation Yrotation
    JOINT LeftLeg
    {
      OFFSET 43.7702 0 0
      CHANNELS 3 Zrotation Xrotation Yrotation
      JOINT LeftFoot
      {
        OFFSET 40.6238 0 0
        CHANNELS 3 Zrotation Xrotation Yrotation
        JOINT LeftToeBase
        {
          OFFSET 12.7242 0 0
          CHANNELS 3 Zrotation Xrotation Yrotation
          End Site
          {
            OFFSET 0 0 0
          }
        }
      }
    }
  }
  JOINT RightUpLeg
  {
    OFFSET -8.2249 1.95398 -2.59336
    CHANNELS 3 Zrotation Xrotation Yrotation
    JOINT RightLeg
    {
      OFFSET 43.5653 0 0
      CHANNELS 3 Zrotation Xrotation Yrotation
      JOINT RightFoot
      {
        OFFSET 40.6238 0 0
        CHANNELS 3 Zrotation Xrotation Yrotation
        JOINT RightToeBase
        {
          OFFSET 12.7242 0 0
          CHANNELS 3 Zrotation Xrotation Yrotation
          End Site
          {
            OFFSET 0 0 0
          }
        }
      }
    }
  }
  JOINT Spine
  {
    OFFSET 0.165834 0.87714 6.61349
    CHANNELS 3 Zrotation Xrotation Yrotation
    JOINT Spine1
    {
      OFFSET 7.38963 1.71661e-005 0
      CHANNELS 3 Zrotation Xrotation Yrotation
      JOINT Spine2
      {
        OFFSET 11.9445 1.14441e-005 0
        CHANNELS 3 Zrotation Xrotation Yrotation
        JOINT Spine3
        {
          OFFSET 14.7254 4.19617e-005 0
          CHANNELS 3 Zrotation Xrotation Yrotation
          JOINT Spine4
          {
            OFFSET 10.9679 0 0
            CHANNELS 3 Zrotation Xrotation Yrotation
            JOINT RightShoulder
            {
              OFFSET 2.46616 -1.6653 3.69651
              CHANNELS 3 Zrotation Xrotation Yrotation
              JOINT RightArm
              {
                OFFSET 13.0012 0 0
                CHANNELS 3 Zrotation Xrotation Yrotation
                JOINT RightForeArm
                {
                  OFFSET 28.7848 1.62311e-005 0
                  CHANNELS 3 Zrotation Xrotation Yrotation
                  JOINT RightHand
                  {
                    OFFSET 26.5688 1.62095e-005 0
                    CHANNELS 3 Zrotation Xrotation Yrotation
                    End Site
                    {
                      OFFSET 0 0 0
                    }
                  }
                }
              }
            }
            JOINT LeftShoulder
            {
              OFFSET 2.38034 -1.29275 -3.7523
              CHANNELS 3 Zrotation Xrotation Yrotation
              JOINT LeftArm
              {
                OFFSET 16.3182 6.07031e-005 0
                CHANNELS 3 Zrotation Xrotation Yrotation
                JOINT LeftForeArm
                {
                  OFFSET 27.0901 0 0
                  CHANNELS 3 Zrotation Xrotation Yrotation
                  JOINT LeftHand
                  {
                    OFFSET 24.5451 1.51738e-005 0
                    CHANNELS 3 Zrotation Xrotation Yrotation
                    End Site
                    {
                      OFFSET 0 0 0
                    }
                  }
                }
              }
            }
            JOINT Neck
            {
              OFFSET 5.0226 -0.0266342 0
              CHANNELS 3 Zrotation Xrotation Yrotation
              JOINT Head
              {
                OFFSET 6.69364 2.86102e-005 0
                CHANNELS 3 Zrotation Xrotation Yrotation
                End Site
                {
                  OFFSET 0 0 0
                }
              }
            }
          }
        }
      }
    }
  }
}
MOTION
Frames:	12
Frame Time:	0.0416667
50.3847 96.0796 -62.3028 132.914 -81.3824 133.953 174.598 18.2702 90.6784 -16.2226 11.2238 2.98384 51.9827 -1.63824 5.43442 43.5033 7.1793 13.1348 172.671 -1.76204 96.3607 -29.6824 -3.40875 0.512372 74.8198 -5.26222 12.4564 29.9642 -1.59692 1.85499 0.0524881 7.75961 -90.5326 11.3529 -0.143896 -1.04643 -0.318436 -0.189803 -1.03908 -22.8503 0.177236 -1.04129 -2.83764 0.177234 -1.04129 97.9354 -50.0176 -88.568 27.932 -7.89846 -9.71083 -5.80028 -12.705 -29.174 -11.1665 -0.466844 -0.337447 -80.833 -55.0778 92.8214 -29.2804 -31.4353 -0.44488 3.46374 75.0773 0.020015 -8.41921 0.244281 -10.3883 7.3228 -8.28256 -2.81005 -14.6383 -7.50031 -0.91828 
50.4686 95.4302 -54.3501 -174.775 -84.4359 -172.313 173.919 17.819 92.8522 -9.0009 23.1189 5.44785 55.6337 -0.617116 2.38137 45.3459 8.08338 12.2945 173.555 -6.70302 96.2785 -29.0935 -9.20907 -0.504757 72.3848 -6.84651 11.3775 34.1754 -7.04868 1.29217 0.277574 7.83935 -90.5934 11.1948 0.276656 -1.20791 -0.476672 0.223228 -1.21892 -23.0082 0.626868 -1.06895 -2.99552 0.626869 -1.06894 97.7053 -49.7342 -88.9507 27.3724 -9.31422 -10.8214 -6.01076 -11.5746 -30.679 -12.2124 -0.413388 -1.26929 -80.1465 -55.5118 93.8207 -27.2817 -30.8749 1.52905 2.54766 73.7654 0.0241479 -10.9569 0.453926 -11.622 5.67252 -9.43623 -2.34689 -14.4118 -8.57184 -2.92906 
50.9363 94.0492 -45.2138 -128.264 -79.8667 -126.013 173.88 17.9355 93.3467 -18.2645 24.7106 5.77606 54.3553 -2.93093 3.76504 45.5827 7.9924 10.497 174.692 -9.32616 94.0043 -35.0954 -14.9549 -3.1519 69.9186 -5.39068 11.8116 38.2939 -12.699 -0.652512 0.396334 7.92535 -90.4276 11.0236 0.590855 -0.908133 -0.647594 0.550308 -0.933269 -23.1821 0.83646 -0.68859 -3.16949 0.83646 -0.688599 97.5103 -49.8827 -89.2406 27.673 -10.6708 -9.95927 -6.64117 -13.2916 -29.8975 -11.6748 -0.501253 -0.153515 -80.024 -56.1407 94.0207 -25.945 -31.1248 0.9859 2.76295 71.7915 0.0267611 -9.00223 0.395093 -12.6304 3.62663 -10.3174 -0.733317 -14.8343 -9.41765 -6.10363 
51.229 93.0121 -36.8131 -121.056 -76.1913 -121.552 176.314 18.2352 90.0802 -29.5566 23.6107 4.3976 56.8517 -2.09525 7.17014 41.2183 5.39475 5.4024 173.16 -4.164 88.1045 -50.3787 -15.067 -3.27388 61.939 2.97958 10.9448 29.9545 -1.43598 -10.1885 0.0470623 8.0313 -89.8694 10.811 0.154072 0.245342 -0.859914 0.164717 0.238314 -23.3949 0.073216 0.280309 -3.38225 0.0732113 0.280296 97.6457 -50.7545 -88.952 30.3784 -7.76659 -8.49113 -4.16287 -14.5004 -24.6328 -13.9747 -0.642793 0.16175 -81.0501 -55.361 92.5266 -27.0848 -32.0857 -5.78499 4.4358 75.6547 0.0379894 -5.9686 0.164702 -9.1956 -0.00464176 -12.3914 -0.546418 -14.3018 -11.1919 -10.0644 
50.6223 93.3523 -30.022 -112.854 -69.7234 -114.439 -179.083 13.9074 89.3209 -32.0378 20.1569 2.05197 60.9675 0.598643 9.14343 42.3478 5.74455 3.23969 173.086 7.60166 85.702 -68.8279 -13.3117 -2.8391 56.8124 6.56798 4.35291 25.7699 4.89684 -7.244 -0.247642 8.2254 -89.5538 10.4234 -0.28877 0.910723 -1.24791 -0.248402 0.922541 -23.7812 -0.549123 0.781843 -3.76859 -0.549128 0.781838 97.1208 -50.5942 -89.7752 32.2525 -8.27107 -9.8629 -1.03212 -13.8518 -18.4719 -13.0021 -0.825502 2.14592 -81.5811 -54.7526 91.7293 -30.1253 -32.2287 -15.7003 6.57335 73.3332 0.0325186 -5.48317 0.177249 -8.81482 -0.371906 -12.2214 0.37028 -14.592 -11.1434 -9.91109 
49.0824 94.5953 -23.7545 -106.312 -65.5825 -105.514 -176.883 9.42778 91.4362 -30.4971 17.1414 1.90213 62.8235 2.08431 9.6772 44.0329 6.50276 3.44345 169.236 17.812 92.7736 -71.2651 -13.902 -0.0436833 59.8885 3.68247 7.89856 28.1887 1.20278 -7.00913 -0.719121 8.18606 -89.7813 10.506 -1.33185 0.554317 -1.16442 -1.30616 0.612397 -23.7046 -1.43687 0.128349 -3.69199 -1.43687 0.12834 97.1907 -51.224 -89.6067 32.9119 -10.753 -7.92072 -2.84302 -15.5594 -19.4735 -6.97593 -0.311921 0.120317 -82.0356 -52.6639 90.9262 -32.0658 -28.6337 -23.204 5.14614 64.2315 0.0184558 1.46233 -0.0506562 -7.28775 -0.900634 -11.3034 -0.061409 -13.3159 -10.4568 -8.12365 
47.0662 95.3584 -18.0803 -101.022 -60.6654 -99.745 -174.92 4.57112 92.5815 -27.3613 13.7136 0.950849 63.6584 2.39711 9.33263 45.6337 7.3514 4.70711 165.787 22.4376 95.8306 -56.9153 -11.8452 3.81997 62.4411 0.980474 10.0448 31.8168 -4.26448 -6.0699 -1.01958 8.07049 -89.853 10.738 -1.96255 0.473029 -0.931599 -1.93981 0.558958 -23.4787 -2.01394 -0.138905 -3.46606 -2.01393 -0.138919 97.5725 -51.1845 -89.0265 35.1738 -10.4624 -5.15012 -3.64099 -16.2949 -21.4169 -9.57291 -0.504933 0.900233 -81.8145 -51.9982 91.2032 -29.2544 -23.6898 -28.8178 0.660462 53.9394 0.623426 4.08325 -0.221637 -7.31562 0.631644 -10.4402 -0.00157871 -14.7498 -9.42836 -8.66598 
44.458 96.1728 -12.8183 -96.6458 -54.1087 -96.9728 -174.487 -2.42346 90.2766 -19.2841 8.5472 0.205881 61.0684 1.03021 8.53222 47.9593 8.57395 5.8837 167.163 21.7814 95.8298 -31.2272 3.03388 6.19296 64.2832 1.08384 13.1705 31.5192 -3.84472 -6.86231 -0.993817 7.84826 -89.7964 11.1833 -1.88337 0.589783 -0.486422 -1.85559 0.672131 -23.0325 -1.97352 -0.00372079 -3.01988 -1.97352 -0.00372469 97.2998 -50.8477 -89.4755 36.589 -8.3733 -3.20375 -2.44883 -16.0304 -19.41 -10.3395 -0.583212 1.4386 -80.8858 -52.5264 92.6073 -25.5827 -20.0194 -32.9448 3.53562 47.1241 -7.97975 1.72895 -0.206208 -7.60009 2.15628 -9.16219 1.06052 -15.241 -8.40312 -7.52477 
40.8862 96.3857 -7.85142 -92.9103 -48.6907 -95.9549 -174.561 -8.48312 87.9212 -12.1991 6.5514 -0.679115 56.3163 -0.748469 5.95243 53.0168 11.5617 8.99872 174.957 22.773 94.7498 -12.9303 17.7185 0.956768 66.8714 4.5433 12.3121 30.2086 -1.8717 -6.02823 -0.885451 7.58645 -89.7591 11.7058 -1.64797 0.653807 0.0357126 -1.6176 0.725712 -22.5076 -1.76825 0.12816 -2.49501 -1.76826 0.128151 96.8356 -50.8633 -90.1867 36.5172 -6.36972 -3.09491 -0.664243 -17.8184 -14.5823 -8.71226 -0.493372 1.49007 -80.8055 -52.2952 92.7127 -23.6598 -16.3321 -33.4896 8.602 41.2214 -20.3326 3.18391 -0.283954 -8.29544 4.38284 -7.95795 2.30351 -15.0533 -7.58753 -6.20968 
36.0609 95.4372 -2.22246 -93.3477 -46.57 -96.794 -174.387 -10.0981 87.2683 -18.9038 7.60159 -0.0508138 54.0249 -2.60096 2.62505 59.4352 15.4096 11.096 173.716 23.9826 93.6407 -18.3374 17.1817 1.18228 66.6937 5.42965 9.29349 28.1906 1.13641 -5.79812 -0.924986 7.62646 -90.0553 11.6274 -1.86598 0.0797406 -0.0421654 -1.86068 0.161817 -22.588 -1.80367 -0.484944 -2.57539 -1.80365 -0.484937 96.9106 -50.5241 -90.1064 35.2819 -4.71959 -3.80214 0.996604 -18.6836 -10.8563 -8.62271 -0.547494 2.33806 -80.6932 -54.2541 92.9812 -22.2959 -12.8094 -31.8311 14.4182 41.4277 -31.3079 3.96907 -0.369043 -9.4888 6.86794 -7.30851 3.78651 -15.0985 -7.30431 -5.7957 
29.5152 94.6961 3.05309 -93.6525 -42.5738 -95.2108 -171.077 -3.84179 92.5484 -36.9415 5.00255 0.562459 46.0862 -10.8384 -2.96849 53.3438 13.3103 17.0191 170.699 23.4957 95.8038 -29.5548 12.056 3.92438 69.4001 3.05103 7.4855 24.3551 6.43896 -3.51126 -0.574698 7.55215 -90.6358 11.7621 -1.44148 -1.11282 0.0915822 -1.48905 -1.04829 -22.4434 -1.04043 -1.49455 -2.43078 -1.04044 -1.49456 97.0336 -50.0952 -89.9597 33.1415 -2.59522 -3.39823 1.30973 -17.722 -10.6749 -10.2345 -0.719734 3.12637 -80.2893 -54.6807 93.582 -24.7941 -9.21354 -26.2318 21.8415 48.2703 -38.6103 1.26883 -0.316296 -11.4089 6.11885 -7.53116 3.08038 -15.6209 -7.57677 -3.93843 
23.0004 93.7829 7.21272 -95.2055 -37.5704 -94.6763 -172.658 6.94113 90.777 -57.9073 5.72889 2.70303 49.0241 -6.54489 3.06602 45.6774 8.61728 15.1355 169.545 19.8559 97.6409 -36.5294 7.68356 5.11405 73.7969 -1.97066 6.52342 25.9798 4.05235 -2.86479 -0.363946 7.70434 -90.8958 11.454 -1.1425 -1.66833 -0.217469 -1.21482 -1.61645 -22.7454 -0.588384 -1.93448 -2.73277 -0.588391 -1.93448 97.3409 -50.6149 -89.4342 30.6858 -1.96474 -6.36513 0.597342 -16.0118 -13.5431 -12.5908 -0.945702 3.65026 -80.6243 -55.7795 93.1539 -25.1205 -9.50168 -19.1088 26.0871 54.342 -41.9355 -3.93921 0.0237123 -12.708 5.32182 -7.62417 -0.181485 -15.0174 -7.24306 -2.3461 
